<svg width="1440" height="26" viewBox="0 0 1440 26" fill="none" xmlns="http://www.w3.org/2000/svg">
<g opacity="0.25">
<path d="M0 6.7417C34.2864 6.7417 34.2863 19.3831 68.5727 19.3831C102.859 19.3831 102.859 6.7417 137.132 6.7417C171.405 6.7417 171.418 19.3831 205.705 19.3831C239.991 19.3831 239.991 6.7417 274.277 6.7417C308.564 6.7417 308.564 19.3831 342.837 19.3831C377.11 19.3831 377.123 6.7417 411.409 6.7417C445.696 6.7417 445.696 19.3831 479.982 19.3831C514.268 19.3831 514.268 6.7417 548.555 6.7417C582.841 6.7417 582.828 19.3831 617.114 19.3831C651.4 19.3831 651.4 6.7417 685.687 6.7417C719.973 6.7417 719.973 19.3831 754.246 19.3831C788.519 19.3831 788.532 6.7417 822.819 6.7417C857.105 6.7417 857.105 19.3831 891.405 19.3831C925.705 19.3831 925.678 6.7417 959.964 6.7417C994.251 6.7417 994.264 19.3831 1028.55 19.3831C1062.84 19.3831 1062.84 6.7417 1097.11 6.7417C1131.38 6.7417 1131.4 19.3831 1165.68 19.3831C1199.97 19.3831 1199.97 6.7417 1234.27 6.7417C1268.57 6.7417 1268.55 19.3831 1302.84 19.3831C1337.13 19.3831 1337.13 6.7417 1371.41 6.7417C1405.7 6.7417 1405.71 19.3831 1440 19.3831" fill="black"/>
<path d="M0 6.7417C34.2864 6.7417 34.2863 19.3831 68.5727 19.3831C102.859 19.3831 102.859 6.7417 137.132 6.7417C171.405 6.7417 171.418 19.3831 205.705 19.3831C239.991 19.3831 239.991 6.7417 274.277 6.7417C308.564 6.7417 308.564 19.3831 342.837 19.3831C377.11 19.3831 377.123 6.7417 411.409 6.7417C445.696 6.7417 445.696 19.3831 479.982 19.3831C514.268 19.3831 514.268 6.7417 548.555 6.7417C582.841 6.7417 582.828 19.3831 617.114 19.3831C651.4 19.3831 651.4 6.7417 685.687 6.7417C719.973 6.7417 719.973 19.3831 754.246 19.3831C788.519 19.3831 788.532 6.7417 822.819 6.7417C857.105 6.7417 857.105 19.3831 891.405 19.3831C925.705 19.3831 925.678 6.7417 959.964 6.7417C994.251 6.7417 994.264 19.3831 1028.55 19.3831C1062.84 19.3831 1062.84 6.7417 1097.11 6.7417C1131.38 6.7417 1131.4 19.3831 1165.68 19.3831C1199.97 19.3831 1199.97 6.7417 1234.27 6.7417C1268.57 6.7417 1268.55 19.3831 1302.84 19.3831C1337.13 19.3831 1337.13 6.7417 1371.41 6.7417C1405.7 6.7417 1405.71 19.3831 1440 19.3831" stroke="black" stroke-width="13" stroke-miterlimit="10"/>
</g>
</svg>
